# xmcd CD database file
#
# Track frame offsets:
#	150
#	17258
#	41386
#	86326
#	113786
#	144978
#	165706
#	193112
#	222000
#	281426
#
# Disc length: 4437 seconds
#
# Revision: 4
# Processed by: cddbd v1.4PL0 Copyright (c) Steve Scherf et al.
# Submitted via: CDex 1.50Beta7
#
DISCID=7911530a
DTITLE=Noah and The Stratocats - Noah and The Stratocats
DYEAR=1999
DGENRE=Blues
TTITLE0=88 Elmira St
TTITLE1=Wait on Time
TTITLE2=People Say
TTITLE3=Just Your Fool
TTITLE4=Memphis Bound
TTITLE5=Give Me Back My Wig
TTITLE6=Walking Dr Bill
TTITLE7=I Wish You Would
TTITLE8=Drivin' South - Third Stone from the Sun
TTITLE9=Medicine Man
EXTD=YEAR: 1999
EXTT0=
EXTT1=
EXTT2=
EXTT3=
EXTT4=
EXTT5=
EXTT6=
EXTT7=
EXTT8=
EXTT9=
PLAYORDER=
